<svg xmlns="http://www.w3.org/2000/svg" xmlns:xlink="http://www.w3.org/1999/xlink"><defs><style>
    .sprite-symbol-usage {display: none;}
    .sprite-symbol-usage:target {display: inline;}
  </style><symbol viewBox="0 0 8 8" id="example-1">
  <path d="M1.41 0l-1.41 1.41.72.72 1.78 1.81-1.78 1.78-.72.69 1.41 1.44.72-.72 1.81-1.81 1.78 1.81.69.72 1.44-1.44-.72-.69-1.81-1.78 1.81-1.81.72-.72-1.44-1.41-.69.72-1.78 1.78-1.81-1.78-.72-.72z" />
</symbol><symbol viewBox="0 0 8 8" id="example-3">
  <path d="M3.5 0c-1.93 0-3.5 1.57-3.5 3.5 0-1.38 1.12-2.5 2.5-2.5s2.5 1.12 2.5 2.5v.5h-1l2 2 2-2h-1v-.5c0-1.93-1.57-3.5-3.5-3.5z" transform="translate(0 1)" />
</symbol><symbol viewBox="0 0 8 8" id="example-4">
  <path d="M0 0v1h8v-1h-8zm1 2v1h6v-1h-6zm-1 2v1h8v-1h-8zm1 2v1h6v-1h-6z" />
</symbol><symbol viewBox="0 0 8 8" id="example-5">
  <path d="M4.5 0c-1.93 0-3.5 1.57-3.5 3.5v.5h-1l2 2 2-2h-1v-.5c0-1.38 1.12-2.5 2.5-2.5s2.5 1.12 2.5 2.5c0-1.93-1.57-3.5-3.5-3.5z" transform="translate(0 1)" />
</symbol></defs><use id="example-1-usage" xlink:href="#example-1" class="sprite-symbol-usage" /><use id="example-3-usage" xlink:href="#example-3" class="sprite-symbol-usage" /><use id="example-4-usage" xlink:href="#example-4" class="sprite-symbol-usage" /><use id="example-5-usage" xlink:href="#example-5" class="sprite-symbol-usage" /></svg>